<svg xmlns="http://www.w3.org/2000/svg" version="1.1" xmlns:xlink="http://www.w3.org/1999/xlink" width="512" height="512" x="0" y="0" viewBox="0 0 50 50" style="enable-background:new 0 0 512 512" xml:space="preserve" class=""><g><path d="M48.162 38.495 40.29 14.24a.748.748 0 0 0-.713-.518h-3.382c-.29-1.819-1.605-3.198-3.183-3.198s-2.894 1.379-3.183 3.198h-1.774c-.29-1.819-1.605-3.198-3.183-3.198s-2.893 1.379-3.183 3.198h-1.775c-.289-1.819-1.604-3.198-3.182-3.198s-2.893 1.379-3.182 3.198h-3.125a.748.748 0 0 0-.713.518L1.838 38.495a.749.749 0 0 0 .713.982h44.898a.75.75 0 0 0 .713-.982zM33.011 12.023c.76 0 1.416.727 1.649 1.698h-3.298c.232-.971.89-1.698 1.649-1.698zm-8.14 0c.76 0 1.416.727 1.65 1.698h-3.299c.233-.971.89-1.698 1.65-1.698zm-8.14 0c.76 0 1.416.727 1.649 1.698h-3.298c.233-.971.89-1.698 1.65-1.698zm2.111 25.954L11.455 15.22h6.933c-.18.768-.625 1.388-1.207 1.613a.75.75 0 1 0 .54 1.398c1.149-.443 1.97-1.608 2.19-3.011h6.618c-.18.768-.626 1.388-1.209 1.613a.75.75 0 1 0 .541 1.398c1.149-.443 1.97-1.608 2.191-3.011h6.616c-.18.768-.625 1.388-1.208 1.613a.75.75 0 1 0 .541 1.398c1.149-.443 1.97-1.608 2.19-3.011h2.84l7.386 22.756H18.842zM28.84 21.99c0 .42-.33.75-.75.75a.749.749 0 1 1 0-1.5c.42 0 .75.34.75.75zm-4 0c0 .42-.33.75-.75.75a.749.749 0 1 1 0-1.5c.42 0 .75.34.75.75zm-4 0c0 .42-.33.75-.75.75a.749.749 0 1 1 0-1.5c.42 0 .75.34.75.75zm16 0c0 .42-.33.75-.75.75a.749.749 0 1 1 0-1.5c.42 0 .75.34.75.75zm-4 0c0 .42-.33.75-.75.75a.749.749 0 1 1 0-1.5c.42 0 .75.34.75.75zm-2.26 5c0 .42-.34.75-.75.75-.42 0-.75-.33-.75-.75a.749.749 0 1 1 1.5 0zm4 0c0 .42-.34.75-.75.75-.42 0-.75-.33-.75-.75a.749.749 0 1 1 1.5 0zm-12 0c0 .42-.34.75-.75.75-.42 0-.75-.33-.75-.75a.749.749 0 1 1 1.5 0zm16 0c0 .42-.34.75-.75.75-.42 0-.75-.33-.75-.75a.749.749 0 1 1 1.5 0zm-12 0c0 .42-.34.75-.75.75-.42 0-.75-.33-.75-.75a.749.749 0 1 1 1.5 0zm1.53 5c0 .42-.34.75-.75.75-.42 0-.75-.33-.75-.75a.749.749 0 1 1 1.5 0zm-4 0c0 .42-.34.75-.75.75-.42 0-.75-.33-.75-.75a.749.749 0 1 1 1.5 0zm8 0c0 .42-.34.75-.75.75-.42 0-.75-.33-.75-.75a.749.749 0 1 1 1.5 0z" fill="#000000" opacity="1" data-original="#000000"></path></g></svg>