<svg xmlns="http://www.w3.org/2000/svg" version="1.1" xmlns:xlink="http://www.w3.org/1999/xlink" width="512" height="512" x="0" y="0" viewBox="0 0 64 64" style="enable-background:new 0 0 512 512" xml:space="preserve" class=""><g><path d="m58.238 21.23-13.091-9.067c-.434-.313-1.093-.195-1.389.253l-1.426 2.058 14.733 10.204 1.425-2.058a.998.998 0 0 0-.253-1.389zM20.243 12.415a1.006 1.006 0 0 0-1.389-.253L5.763 21.229a1 1 0 0 0-.253 1.389l1.425 2.058 14.733-10.204-1.425-2.058zM24.561 26.677a.997.997 0 0 0 .747-.161l2.356-1.632a1 1 0 0 0 .253-1.389l-5.111-7.379L8.073 26.32l5.111 7.379a.997.997 0 0 0 1.39.253l2.356-1.632a.996.996 0 0 0 .413-.643l.401-2.201 4.618-3.199 2.202.4zm-6.304-1.392c-2.069 1.382-4.188-1.661-2.161-3.118 2.074-1.381 4.183 1.662 2.161 3.118zM36.084 23.494a.998.998 0 0 0 .253 1.389l2.356 1.632a.99.99 0 0 0 .747.161l2.202-.4 4.618 3.198.399 2.201c.048.261.197.492.414.643l2.357 1.632a.999.999 0 0 0 1.389-.253l5.111-7.379-14.733-10.204-5.111 7.379zm9.181-.848c1.455-2.022 4.5.085 3.118 2.16-1.463 2.027-4.502-.096-3.118-2.16zM41.183 28.389l-1.259.229c-1.238 3.134-4.034 7.593-10.274 10.041-7.823 3.027-4.689 14.575 3.58 13.243 3.239-.533 5.732-3.57 5.652-6.848.097-6.702 3.288-10.887 5.787-13.148l-.228-1.26-3.257-2.256zm-6.679 18.473c-2.386 3.248-7.21-.12-5.008-3.469 2.368-3.244 7.209.105 5.008 3.469zM28.835 36.835c.413-.165.82-.338 1.204-.52a17.334 17.334 0 0 1-5.957-7.696l-1.266-.23-3.258 2.257-.229 1.257a17.33 17.33 0 0 1 5.168 8.492c1-1.642 2.546-2.874 4.338-3.56z" fill="#000000" opacity="1" data-original="#000000" class=""></path></g></svg>