<svg xmlns="http://www.w3.org/2000/svg" version="1.1" xmlns:xlink="http://www.w3.org/1999/xlink" width="512" height="512" x="0" y="0" viewBox="0 0 512 512" style="enable-background:new 0 0 512 512" xml:space="preserve" class=""><g><path d="M110.334 94.267H241V192.8H110.334z" fill="#000000" opacity="1" data-original="#000000" class=""></path><path d="M497 64.267h-1.066v-33.2c0-8.284-6.716-15-15-15s-15 6.716-15 15v33.2h-34.268v-33.2c0-8.284-6.716-15-15-15s-15 6.716-15 15v33.2H400.6c-8.284 0-15 6.716-15 15v48.2c0 29.68 20.571 54.633 48.201 61.386V400.6c0 9.447-7.687 17.134-17.135 17.134-9.447 0-17.133-7.687-17.133-17.134V256c0-38.579-27.709-70.791-64.268-77.824V55.166C335.266 24.747 310.518 0 280.1 0H71.232C40.814 0 16.066 24.747 16.066 55.166V482H15c-8.284 0-15 6.716-15 15s6.716 15 15 15H336.333c8.284 0 15-6.716 15-15s-6.716-15-15-15h-1.068V209.076c19.853 6.361 34.268 24.987 34.268 46.924v144.6c0 25.989 21.144 47.134 47.133 47.134 25.99 0 47.135-21.145 47.135-47.134V188.853C491.43 182.1 512 157.146 512 127.467v-48.2c0-8.285-6.716-15-15-15zM223.225 359.108l-34.143 68.283c-2.628 5.257-7.926 8.295-13.428 8.295a14.94 14.94 0 0 1-6.697-1.587c-7.409-3.704-10.412-12.715-6.707-20.124l23.287-46.575h-44.012a15 15 0 0 1-13.416-21.708l34.141-68.283c3.704-7.409 12.714-10.416 20.124-6.708 7.409 3.704 10.413 12.714 6.708 20.124L165.795 337.4h44.014a14.998 14.998 0 0 1 13.416 21.708zM271 207.8c0 8.284-6.716 15-15 15H95.334c-8.284 0-15-6.716-15-15V79.267c0-8.284 6.716-15 15-15H256c8.284 0 15 6.716 15 15z" fill="#000000" opacity="1" data-original="#000000" class=""></path></g></svg>