<svg xmlns="http://www.w3.org/2000/svg" version="1.1" xmlns:xlink="http://www.w3.org/1999/xlink" width="512" height="512" x="0" y="0" viewBox="0 0 24 24" style="enable-background:new 0 0 512 512" xml:space="preserve" class=""><g><path d="M3 0C1.91 0 1 .91 1 2v21a1 1 0 0 0 1 1h12a1 1 0 0 0 1-1v-4.5a.5.5 0 0 1 .5-.5h.5c.564 0 1 .436 1 1v1c0 1.645 1.355 3 3 3s3-1.355 3-3V7c0-.943-.445-1.834-1.2-2.4l-3.2-2.4a1.002 1.002 0 0 0-1.4.2 1.003 1.003 0 0 0 .2 1.4l1.2.9a1 1 0 0 1 .4.8V8c0 .922.647 1.714 1.506 1.938.266.069.494.286.494.562V20c0 .564-.436 1-1 1-.564 0-1-.436-1-1v-1c0-1.645-1.355-3-3-3h-.5a.5.5 0 0 1-.5-.5V2c0-1.09-.91-2-2-2zm.5 2h9c.277 0 .5.223.5.5v7c0 .277-.223.5-.5.5h-9a.499.499 0 0 1-.5-.5v-7c0-.277.223-.5.5-.5z" paint-order="fill markers stroke" fill="#000000" opacity="1" data-original="#000000" class=""></path></g></svg>