<svg xmlns="http://www.w3.org/2000/svg" version="1.1" xmlns:xlink="http://www.w3.org/1999/xlink" width="512" height="512" x="0" y="0" viewBox="0 0 500 500" style="enable-background:new 0 0 512 512" xml:space="preserve" class=""><g><path fill-rule="evenodd" d="M391.516 250c0 75.675-59.401 137.47-134.119 141.319-.246.013-.46-.069-.639-.238s-.27-.381-.27-.628V109.548c0-.247.091-.459.27-.628a.836.836 0 0 1 .639-.238C332.116 112.53 391.516 174.325 391.516 250zm-169.694 20.198c0-28.098-32.962-52.656-43.677-85.03-.119-.36-.441-.593-.82-.593s-.701.233-.82.593c-10.714 32.374-43.676 56.932-43.676 85.03 0 25.479 19.922 46.133 44.496 46.133 24.575 0 44.497-20.654 44.497-46.133zm78.932 45.974 58.239-60.667a1.294 1.294 0 0 0-.304-2.029l-29.445-17.683a.86.86 0 0 1-.352-1.077l16.821-39.917c3.453-8.195-4.579-16.04-10.994-8.97l-56.335 62.082c-.571.628-.425 1.673.472 2.072l.022.01 28.962 13.847c.421.201.606.7.42 1.126l-18.025 41.25c-4.056 9.283 3.76 16.777 10.509 9.965l.01-.009zm-57.242-206.624v280.904a.834.834 0 0 1-.27.628.836.836 0 0 1-.64.238C167.884 387.47 108.484 325.675 108.484 250s59.401-137.47 134.119-141.319a.84.84 0 0 1 .64.238.84.84 0 0 1 .269.629zM60.687 278.552l-22.07 24.512.003.003a6.474 6.474 0 0 0-.789 7.574l53.497 92.533.016.03a6.48 6.48 0 0 0 7.072 3.312l32.242-6.853a.839.839 0 0 1 .717.168c14.638 11.609 30.766 20.962 48.197 27.874a.84.84 0 0 1 .504.536l10.053 30.939.015.051a6.49 6.49 0 0 0 6.282 4.86h107.145v-.011a6.476 6.476 0 0 0 6.158-4.475l10.187-31.352a.839.839 0 0 1 .504-.537c17.438-6.912 33.579-16.267 48.221-27.88a.836.836 0 0 1 .717-.168l32.224 6.846a6.475 6.475 0 0 0 6.943-3.089l53.486-92.514.02-.032a6.48 6.48 0 0 0-.65-7.814l-22.075-24.518a.839.839 0 0 1-.213-.704 190.944 190.944 0 0 0 .005-55.689.838.838 0 0 1 .213-.704l22.07-24.512-.003-.003a6.474 6.474 0 0 0 .789-7.574L408.67 96.828a6.48 6.48 0 0 0-7.088-3.342l-32.242 6.853a.839.839 0 0 1-.717-.168c-14.637-11.608-30.767-20.963-48.198-27.874a.84.84 0 0 1-.504-.536L309.869 40.82l-.015-.051a6.49 6.49 0 0 0-6.281-4.86H196.427v.011a6.477 6.477 0 0 0-6.158 4.475l-10.191 31.363a.835.835 0 0 1-.504.536c-17.429 6.911-33.561 16.267-48.197 27.874a.836.836 0 0 1-.717.168l-32.243-6.85a6.475 6.475 0 0 0-6.943 3.089L37.987 189.09l-.02.032a6.48 6.48 0 0 0 .65 7.814l22.07 24.512a.839.839 0 0 1 .213.704 191.229 191.229 0 0 0 0 55.695.836.836 0 0 1-.213.705z" clip-rule="evenodd" fill="#000000" opacity="1" data-original="#000000"></path></g></svg>