<svg xmlns="http://www.w3.org/2000/svg" version="1.1" xmlns:xlink="http://www.w3.org/1999/xlink" width="512" height="512" x="0" y="0" viewBox="0 0 511.999 511.999" style="enable-background:new 0 0 512 512" xml:space="preserve" class=""><g><path d="M357.42 209.037c-9.09-9.093-23.832-9.09-32.924 0l-66.389 66.387a44.286 44.286 0 0 0-10.23-1.203c-24.435 0-44.316 19.897-44.316 44.356 0 24.459 19.88 44.357 44.316 44.357 24.459 0 44.357-19.899 44.357-44.357 0-3.522-.424-6.944-1.203-10.23l66.387-66.387c9.095-9.09 9.095-23.832.002-32.923z" fill="#000000" opacity="1" data-original="#000000"></path><path d="M437.082 120.098c-99.832-99.835-262.314-99.84-362.204.005-86.213 86.257-99.573 222.314-31.77 323.512 7.156 10.681 21.62 13.535 32.301 6.382 10.681-7.156 13.539-21.618 6.382-32.301-19.051-28.435-30.27-60.236-33.926-92.597h21.889c12.857 0 23.281-10.424 23.281-23.281s-10.424-23.281-23.281-23.281H47.791c4.219-38.675 19.11-76.218 44.212-107.794l15.84 15.842a23.21 23.21 0 0 0 16.463 6.82 23.203 23.203 0 0 0 16.461-6.82c9.092-9.09 9.092-23.832 0-32.924l-15.913-15.91c32.054-25.745 69.977-40.678 108.842-44.8v21.986c0 12.857 10.424 23.281 23.281 23.281s23.281-10.424 23.281-23.281V93.162c38.183 4.412 75.369 19.281 106.874 44.598l-15.901 15.902c-9.09 9.092-9.089 23.832.002 32.925 4.547 4.546 10.504 6.818 16.463 6.818s11.918-2.274 16.463-6.82l15.826-15.826c25.107 31.573 40.002 69.111 44.224 107.779h-21.961c-12.857 0-23.281 10.424-23.281 23.281s10.424 23.281 23.281 23.281h21.89c-3.658 32.36-14.88 64.159-33.937 92.594-7.158 10.681-4.304 25.142 6.376 32.3a23.173 23.173 0 0 0 12.941 3.945c7.503 0 14.869-3.621 19.36-10.321 67.83-101.206 54.459-237.266-31.796-323.52z" fill="#000000" opacity="1" data-original="#000000"></path><path d="M360.923 420.217H151.072c-12.857 0-23.281 10.424-23.281 23.281s10.424 23.281 23.281 23.281h209.851c12.857 0 23.281-10.424 23.281-23.281s-10.424-23.281-23.281-23.281z" fill="#000000" opacity="1" data-original="#000000"></path></g></svg>